<?xml version="1.0" encoding="utf-8"?>
<!-- Generator: Adobe Illustrator 20.1.0, SVG Export Plug-In . SVG Version: 6.00 Build 0)  -->
<svg version="1.1" id="Layer_1" xmlns="http://www.w3.org/2000/svg" xmlns:xlink="http://www.w3.org/1999/xlink" x="0px" y="0px"
	 viewBox="0 0 283 283" style="enable-background:new 0 0 283 283;" xml:space="preserve">
<style type="text/css">
	.st0{fill:#DE7E89;}
</style>
<path class="st0" d="M64.5,248.6c-0.3,0-0.6-0.2-0.7-0.5L14,96.4c-0.1-0.3,0-0.6,0.3-0.8l129-94.2c0.3-0.2,0.6-0.2,0.9,0L273.6,95
	c0.3,0.2,0.4,0.5,0.3,0.8l-49,152.1c-0.1,0.3-0.4,0.5-0.7,0.5L64.5,248.6L64.5,248.6z M224.2,247.5L224.2,247.5L224.2,247.5z
	 M15.6,96.5L65,247.2l158.6-0.4l48.7-151l-128.5-93L15.6,96.5z"/>
<path class="st0" d="M224.2,248.2c-0.2,0-0.5-0.1-0.6-0.3L113,96c-0.2-0.3-0.2-0.8,0.2-1c0.3-0.2,0.8-0.2,1,0.2l110.6,152.1
	c0.2,0.3,0.2,0.8-0.2,1C224.5,248.2,224.4,248.2,224.2,248.2z"/>
<path class="st0" d="M191,36.9c-0.2,0-0.4-0.1-0.6-0.3c-0.3-0.3-0.2-0.8,0.1-1.1l27.8-21.3c0.3-0.3,0.8-0.2,1.1,0.1
	c0.3,0.3,0.2,0.8-0.1,1.1l-27.8,21.3C191.3,36.8,191.1,36.9,191,36.9z"/>
<path class="st0" d="M113.6,96.3c-0.2,0-0.4-0.1-0.6-0.3L57.1,24.8c-0.3-0.3-0.2-0.8,0.1-1.1c0.3-0.3,0.8-0.2,1.1,0.1L114.2,95
	c0.3,0.3,0.2,0.8-0.1,1.1C113.9,96.2,113.8,96.3,113.6,96.3z"/>
<path class="st0" d="M64.5,248.6c-0.2,0-0.4-0.1-0.5-0.2L5.5,195.6c-0.2-0.2-0.3-0.4-0.2-0.6L14,96.2l0,0l0,0l0,0
	c0-0.1,0.1-0.2,0.1-0.3L57,24.1c0.1-0.2,0.3-0.3,0.5-0.3l86-22.5h0.1c0.1,0,0.1,0,0.2,0L219,14c0.2,0,0.4,0.2,0.5,0.3l54.3,80.7
	c0.2,0.2,0.2,0.5,0,0.8c-0.1,0.2-0.4,0.4-0.7,0.4L114,96.7L65.2,248.1c-0.1,0.2-0.3,0.4-0.5,0.5C64.6,248.6,64.5,248.6,64.5,248.6z
	 M6.8,194.7l57.3,51.9l48.3-150l-97,0.2L6.8,194.7z M58.1,25L16,95.4l96.9-0.2L142.5,3L58.1,25z M144.2,2.8l-29.8,92.4l157.3-0.4
	l-53.4-79.3L144.2,2.8z"/>
<path class="st0" d="M144.9,280.6c-0.1,0-0.2,0-0.3-0.1l-80.5-32c-0.4-0.2-0.6-0.6-0.4-1c0.2-0.4,0.6-0.6,1-0.4l80.2,31.9l78.8-32.2
	l52-42.7l-3.3-108.7c0-0.4,0.3-0.8,0.7-0.8c0.4,0,0.8,0.3,0.8,0.7l3.3,109.1c0,0.2-0.1,0.5-0.3,0.6l-52.3,43.1
	c-0.1,0-0.1,0.1-0.2,0.1l-79.2,32.4C145.1,280.6,145,280.6,144.9,280.6z"/>
<path class="st0" d="M144.9,280.6c-0.4,0-0.7-0.3-0.7-0.6L112.9,95.7c-0.1-0.4,0.2-0.8,0.6-0.9s0.8,0.2,0.9,0.6l31.4,184.4
	c0.1,0.4-0.2,0.8-0.6,0.9C145,280.6,145,280.6,144.9,280.6z"/>
<path class="st0" d="M276.5,205.4c-0.3,0-0.5-0.2-0.7-0.4l-23.2-47.3c-0.2-0.4,0-0.8,0.3-1c0.4-0.2,0.8,0,1,0.3l23.2,47.3
	c0.2,0.4,0,0.8-0.3,1C276.7,205.3,276.6,205.4,276.5,205.4z"/>
</svg>
